<?xml version="1.0" standalone="no"?>
<!DOCTYPE svg PUBLIC "-//W3C//DTD SVG 20010904//EN"
 "http://www.w3.org/TR/2001/REC-SVG-20010904/DTD/svg10.dtd">
<svg version="1.0" xmlns="http://www.w3.org/2000/svg"
 width="4rem" height="4rem" viewBox="0 0 313.000000 333.000000"
 preserveAspectRatio="xMidYMid meet">

<g transform="translate(0.000000,333.000000) scale(0.100000,-0.100000)"
fill="#fff" stroke="none">
<path d="M1339 3030 c-391 -71 -701 -270 -927 -598 -102 -148 -178 -343 -206
-532 -8 -55 -30 -78 224 230 223 269 362 414 468 483 92 62 241 132 330 156
l73 20 -4 -352 c-3 -327 -5 -358 -26 -432 -61 -217 -201 -411 -363 -503 -63
-36 -176 -72 -224 -72 l-34 0 0 333 c-1 331 -1 332 -20 306 -11 -14 -62 -77
-115 -140 l-95 -113 0 -510 0 -510 42 -50 c75 -90 172 -196 180 -196 4 0 9
143 10 317 l3 318 72 6 c169 16 336 100 481 244 l92 92 0 -668 0 -668 55 -5
c30 -3 80 -9 110 -12 l55 -5 0 1325 0 1326 90 0 90 0 2 -1322 3 -1322 50 3
c307 17 674 210 877 460 135 167 199 334 201 521 1 184 -54 323 -171 430 -36
33 -69 60 -73 60 -20 0 -6 22 40 65 115 107 181 329 152 512 -58 372 -449 711
-921 800 -134 25 -392 27 -521 3z m796 -336 c202 -103 342 -249 395 -413 33
-104 27 -230 -17 -323 -62 -132 -172 -204 -327 -215 l-86 -6 0 -107 0 -108
133 -4 c118 -4 137 -7 183 -31 150 -77 222 -259 175 -438 -48 -186 -169 -339
-361 -461 -78 -49 -204 -104 -285 -124 l-25 -6 0 1160 0 1161 72 -25 c40 -13
104 -40 143 -60z"/>
</g>
</svg>
